<svg width="20" height="20" viewBox="0 0 20 20" fill="none" xmlns="http://www.w3.org/2000/svg">
<path d="M15.7826 7.24769C15.9487 7.24769 16.0994 7.32019 16.2186 7.44269C16.3296 7.57352 16.3855 7.73602 16.3693 7.90769C16.3693 7.96435 15.9252 13.581 15.6715 15.9451C15.5127 17.3959 14.5774 18.2767 13.1745 18.3009C12.0958 18.3251 11.0414 18.3334 10.0032 18.3334C8.90093 18.3334 7.82302 18.3251 6.77672 18.3009C5.42082 18.2684 4.48474 17.3718 4.33399 15.9451C4.07302 13.5726 3.63699 7.96435 3.62889 7.90769C3.62079 7.73602 3.6759 7.57352 3.78774 7.44269C3.89796 7.32019 4.05681 7.24769 4.22377 7.24769H15.7826ZM11.7206 1.66675C12.4573 1.66675 13.1154 2.18091 13.3059 2.91424L13.442 3.52256C13.5522 4.01839 13.9818 4.36922 14.4762 4.36922H16.9059C17.2301 4.36922 17.5 4.63838 17.5 4.98088V5.29754C17.5 5.63171 17.2301 5.90921 16.9059 5.90921H3.09488C2.76988 5.90921 2.5 5.63171 2.5 5.29754V4.98088C2.5 4.63838 2.76988 4.36922 3.09488 4.36922H5.52464C6.01821 4.36922 6.44775 4.01839 6.55879 3.5234L6.68603 2.95507C6.88378 2.18091 7.53458 1.66675 8.27939 1.66675H11.7206Z" fill="#B8B8B8"/>
</svg>
