<svg width="64" height="64" viewBox="0 0 64 64" fill="none" xmlns="http://www.w3.org/2000/svg">
<path d="M43.5568 5.33331C52.5949 5.33331 58.6666 11.6749 58.6666 21.1112V42.8887C58.6666 52.325 52.5949 58.6666 43.5541 58.6666H20.4431C11.405 58.6666 5.33325 52.325 5.33325 42.8887V21.1112C5.33325 11.6749 11.405 5.33331 20.4431 5.33331H43.5568ZM46.4975 33.4668C43.639 31.6835 41.4321 34.1878 40.8368 34.9886C40.2629 35.7619 39.7695 36.615 39.2493 37.4682C37.9782 39.5734 36.5222 42.0007 34.0015 43.4124C30.3385 45.4406 27.5578 43.572 25.5574 42.2126C24.8065 41.7062 24.0772 41.2274 23.3505 40.9081C21.5592 40.1348 19.9476 41.0155 17.5557 44.0536C16.3007 45.6415 15.0565 47.2157 13.7961 48.7843C13.0426 49.7227 13.2223 51.1703 14.2386 51.7977C15.8609 52.7967 17.8399 53.3333 20.0763 53.3333H42.5503C43.8186 53.3333 45.0897 53.1599 46.3017 52.7636C49.0315 51.872 51.1982 49.83 52.3298 47.1331C53.2845 44.8655 53.7484 42.1135 52.8554 39.8238C52.5578 39.0643 52.1126 38.357 51.4878 37.7351C49.8494 36.1087 48.3183 34.5896 46.4975 33.4668ZM22.6635 16C18.9872 16 15.9999 18.9913 15.9999 22.6666C15.9999 26.342 18.9872 29.3333 22.6635 29.3333C26.3372 29.3333 29.3272 26.342 29.3272 22.6666C29.3272 18.9913 26.3372 16 22.6635 16Z" fill="#A3A3A3"/>
</svg>
