<svg width="24" height="24" viewBox="0 0 24 24" fill="none" xmlns="http://www.w3.org/2000/svg">
<path fill-rule="evenodd" clip-rule="evenodd" d="M8.76466 16.7617C8.06966 16.7617 7.50366 17.3267 7.50366 18.0227C7.50366 18.7177 8.06966 19.2827 8.76466 19.2827C9.45966 19.2827 10.0257 18.7177 10.0257 18.0227C10.0257 17.3267 9.45966 16.7617 8.76466 16.7617Z" fill="#B8B8B8"/>
<path fill-rule="evenodd" clip-rule="evenodd" d="M8.76466 10.7402C8.06966 10.7402 7.50366 11.3052 7.50366 12.0012C7.50366 12.6962 8.06966 13.2612 8.76466 13.2612C9.45966 13.2612 10.0257 12.6962 10.0257 12.0012C10.0257 11.3052 9.45966 10.7402 8.76466 10.7402Z" fill="#B8B8B8"/>
<path fill-rule="evenodd" clip-rule="evenodd" d="M8.76466 4.71875C8.06966 4.71875 7.50366 5.28375 7.50366 5.97975C7.50366 6.67475 8.06966 7.23975 8.76466 7.23975C9.45966 7.23975 10.0257 6.67475 10.0257 5.97975C10.0257 5.28375 9.45966 4.71875 8.76466 4.71875Z" fill="#B8B8B8"/>
<path fill-rule="evenodd" clip-rule="evenodd" d="M15.2354 16.7617C14.5404 16.7617 13.9744 17.3267 13.9744 18.0227C13.9744 18.7177 14.5404 19.2827 15.2354 19.2827C15.9304 19.2827 16.4964 18.7177 16.4964 18.0227C16.4964 17.3267 15.9304 16.7617 15.2354 16.7617Z" fill="#B8B8B8"/>
<path fill-rule="evenodd" clip-rule="evenodd" d="M15.2354 10.7402C14.5404 10.7402 13.9744 11.3052 13.9744 12.0012C13.9744 12.6962 14.5404 13.2612 15.2354 13.2612C15.9304 13.2612 16.4964 12.6962 16.4964 12.0012C16.4964 11.3052 15.9304 10.7402 15.2354 10.7402Z" fill="#B8B8B8"/>
<path fill-rule="evenodd" clip-rule="evenodd" d="M15.2354 7.23975C15.9304 7.23975 16.4964 6.67475 16.4964 5.97875C16.4964 5.28375 15.9304 4.71875 15.2354 4.71875C14.5404 4.71875 13.9744 5.28375 13.9744 5.97875C13.9744 6.67475 14.5404 7.23975 15.2354 7.23975Z" fill="#B8B8B8"/>
</svg>
