<svg width="196" height="24" viewBox="0 0 196 24" fill="none" xmlns="http://www.w3.org/2000/svg">
<path d="M4.72916 1.61599V10.1102H24.4227V1.61599H29.1181V22.7857H24.4227V13.633H4.72916V22.7857H0L0 1.61599H4.72916Z" fill="#0A0A0A"/>
<path d="M35.4467 1.61599H60.5112V5.13879H40.1759V10.4394H59.1263V13.9622H40.1759V19.2629H60.849V22.7857H35.4467V1.61599Z" fill="#0A0A0A"/>
<path d="M66.5624 22.7857V1.61599H82.3038C85.6592 1.61599 88.2265 2.21958 90.0055 3.42677C91.8071 4.63396 92.7079 6.30208 92.7079 8.43112C92.7079 9.66026 92.3589 10.7906 91.6608 11.8222C90.9626 12.8319 89.9605 13.644 88.6544 14.2586C89.7578 14.3244 90.546 14.5988 91.0189 15.0816C91.4918 15.5426 91.7283 16.4095 91.7283 17.6826V22.7857H87.0667L87.0329 17.6826C87.0329 16.9144 86.8753 16.3656 86.56 16.0364C86.2447 15.6852 85.6705 15.5096 84.8372 15.5096H71.2916V22.7857H66.5624ZM71.2916 12.0198H82.3038C84.1279 12.0198 85.5354 11.7015 86.5262 11.065C87.5171 10.4065 88.0125 9.52856 88.0125 8.43112C88.0125 6.23623 86.1096 5.13878 82.3038 5.13878H71.2916V12.0198Z" fill="#0A0A0A"/>
<path d="M98.2403 22.7857V1.61599H103.645L115.569 19.3946L127.46 1.61599H132.898V22.7857H128.203V7.37757L117.866 22.7857H113.272L102.969 7.4105V22.7857H98.2403Z" fill="#0A0A0A"/>
<path d="M139.306 1.61599H164.371V5.13878H144.036V10.4394H162.986V13.9622H144.036V19.2629H164.709V22.7857H139.306V1.61599Z" fill="#0A0A0A"/>
<path d="M173.807 16.0294C173.807 16.1391 173.829 16.2818 173.874 16.4574C173.919 16.611 174.111 16.8963 174.449 17.3134C174.809 17.7304 175.271 18.1035 175.834 18.4328C176.419 18.762 177.32 19.0583 178.536 19.3217C179.774 19.5851 181.216 19.7168 182.86 19.7168C185.134 19.7168 187.071 19.4205 188.67 18.8278C190.291 18.2352 191.102 17.3792 191.102 16.2598C191.102 15.5355 190.708 14.6975 189.92 14.2586C189.131 13.8196 188.107 13.5123 186.846 13.3367C185.607 13.1611 184.222 13.0184 182.691 12.9087C181.182 12.7989 179.662 12.6563 178.131 12.4807C176.622 12.2832 175.237 12.0198 173.976 11.6905C172.715 11.3613 171.69 10.8345 170.902 10.1102C170.113 9.36395 169.719 8.43112 169.719 7.31173C169.719 5.29243 170.834 3.73405 173.064 2.63661C175.293 1.51722 178.367 0.95752 182.285 0.95752C184.673 0.95752 186.744 1.16603 188.501 1.58306C190.28 2.00009 191.586 2.50492 192.419 3.09754C193.253 3.66821 193.906 4.24985 194.379 4.84247C194.874 5.4351 195.167 5.93992 195.257 6.35695L195.358 6.98249H190.426C190.404 6.91665 190.359 6.81787 190.291 6.68618C190.224 6.55449 190.01 6.335 189.649 6.02772C189.312 5.72043 188.872 5.44607 188.332 5.20463C187.814 4.96319 187.026 4.7437 185.967 4.54616C184.909 4.34862 183.704 4.24985 182.353 4.24985C179.966 4.24985 178.074 4.55714 176.678 5.17171C175.304 5.76433 174.617 6.41182 174.617 7.11419C174.617 7.11419 174.617 7.12516 174.617 7.14711C174.617 7.71778 175.012 8.16773 175.8 8.49697C176.588 8.8262 177.601 9.05666 178.84 9.18836C180.101 9.2981 181.497 9.40784 183.029 9.51759C184.56 9.60538 186.08 9.77 187.589 10.0114C189.12 10.2309 190.505 10.5492 191.744 10.9662C193.005 11.3613 194.03 11.9868 194.818 12.8428C195.606 13.6769 196 14.9758 196 16.2269C196 17.5219 195.595 18.6413 194.784 19.5851C193.996 20.5069 192.926 21.2093 191.575 21.6922C190.246 22.175 188.861 22.5153 187.42 22.7128C186.001 22.9323 184.481 23.042 182.86 23.042C181.081 23.042 179.448 22.9103 177.962 22.6469C176.498 22.3836 175.293 22.0543 174.347 21.6592C173.401 21.2642 172.568 20.8142 171.848 20.3094C171.149 19.7826 170.609 19.2888 170.226 18.8278C169.866 18.345 169.573 17.884 169.348 17.4451C169.145 16.9841 169.01 16.6549 168.942 16.4574C168.897 16.2379 168.875 16.0952 168.875 16.0294H173.807Z" fill="#0A0A0A"/>
</svg>
