<svg width="320" height="28" viewBox="0 0 320 28" fill="none" xmlns="http://www.w3.org/2000/svg">
<path d="M14.1393 0.71558V9.94655H35.541V0.71558H40.6437V23.7214H35.541V13.7749H14.1393V23.7214H9L9 0.71558H14.1393Z" fill="#0A0A0A"/>
<path d="M47.5212 0.715581H74.7597V4.54393H52.6605V10.3043H73.2546V14.1327H52.6605V19.8931H75.1268V23.7214H47.5212V0.715581Z" fill="#0A0A0A"/>
<path d="M81.3357 23.7214V0.71558H98.4424C102.089 0.71558 104.879 1.37153 106.812 2.68342C108.77 3.99532 109.749 5.80812 109.749 8.12182C109.749 9.45757 109.37 10.686 108.611 11.8071C107.852 12.9043 106.763 13.7868 105.344 14.4547C106.543 14.5262 107.399 14.8244 107.913 15.3492C108.427 15.8501 108.684 16.7922 108.684 18.1757V23.7214H103.618L103.582 18.1757C103.582 17.3409 103.41 16.7445 103.068 16.3868C102.725 16.0051 102.101 15.8143 101.196 15.8143H86.475V23.7214H81.3357ZM86.475 12.0217H98.4424C100.425 12.0217 101.954 11.6759 103.031 10.9841C104.108 10.2686 104.646 9.31445 104.646 8.12182C104.646 5.73656 102.578 4.54393 98.4424 4.54393H86.475V12.0217Z" fill="#0A0A0A"/>
<path d="M115.761 23.7214V0.71558H121.635L134.593 20.0362L147.515 0.71558H153.425V23.7214H148.323V6.97689L137.089 23.7214H132.097L120.9 7.01267V23.7214H115.761Z" fill="#0A0A0A"/>
<path d="M160.389 0.71558H187.628V4.54393H165.528V10.3043H186.123V14.1327H165.528V19.8931H187.995V23.7214H160.389V0.71558Z" fill="#0A0A0A"/>
<path d="M197.882 16.3791C197.882 16.4984 197.906 16.6534 197.955 16.8442C198.004 17.0112 198.212 17.3213 198.579 17.7745C198.971 18.2277 199.473 18.6332 200.084 18.9909C200.721 19.3487 201.7 19.6707 203.021 19.957C204.367 20.2432 205.933 20.3863 207.72 20.3863C210.192 20.3863 212.296 20.0643 214.034 19.4203C215.796 18.7763 216.677 17.846 216.677 16.6295C216.677 15.8424 216.249 14.9317 215.392 14.4547C214.536 13.9776 213.422 13.6437 212.052 13.4529C210.706 13.2621 209.201 13.107 207.536 12.9878C205.897 12.8685 204.245 12.7135 202.581 12.5226C200.941 12.308 199.436 12.0217 198.065 11.6639C196.695 11.3061 195.581 10.7337 194.725 9.94655C193.868 9.13556 193.44 8.12182 193.44 6.90534C193.44 4.71089 194.651 3.01736 197.074 1.82473C199.497 0.608242 202.838 0 207.096 0C209.69 0 211.942 0.226601 213.85 0.679802C215.784 1.133 217.203 1.68161 218.109 2.32563C219.014 2.9458 219.724 3.57789 220.238 4.22192C220.776 4.86594 221.094 5.41455 221.192 5.86775L221.303 6.54755H215.943C215.918 6.47599 215.869 6.36865 215.796 6.22554C215.723 6.08242 215.49 5.84389 215.099 5.50996C214.732 5.17602 214.254 4.87786 213.667 4.61548C213.104 4.3531 212.247 4.11458 211.097 3.8999C209.947 3.68523 208.638 3.57789 207.169 3.57789C204.575 3.57789 202.519 3.91183 201.002 4.5797C199.509 5.22373 198.763 5.92738 198.763 6.69066C198.763 6.69066 198.763 6.70259 198.763 6.72644C198.763 7.34661 199.191 7.83559 200.048 8.19338C200.904 8.55117 202.006 8.80162 203.352 8.94474C204.722 9.064 206.239 9.18326 207.904 9.30253C209.568 9.39793 211.22 9.57683 212.859 9.83921C214.523 10.0777 216.029 10.4236 217.375 10.8768C218.745 11.3061 219.859 11.9859 220.715 12.9162C221.572 13.8226 222 15.2342 222 16.5938C222 18.0011 221.559 19.2176 220.678 20.2432C219.822 21.245 218.659 22.0083 217.191 22.5331C215.747 23.0578 214.242 23.4275 212.676 23.6422C211.134 23.8807 209.482 24 207.72 24C205.787 24 204.012 23.8569 202.397 23.5707C200.806 23.2844 199.497 22.9266 198.469 22.4973C197.441 22.0679 196.536 21.579 195.753 21.0303C194.994 20.4579 194.407 19.9212 193.991 19.4203C193.599 18.8955 193.281 18.3946 193.036 17.9176C192.816 17.4167 192.669 17.0589 192.596 16.8442C192.547 16.6057 192.522 16.4506 192.522 16.3791H197.882Z" fill="#0A0A0A"/>
<path d="M232.612 12.9822V9.85053H234.946V12.9822H240.91V14.809H234.946L234.969 20.9063C234.969 21.2226 235.023 21.444 235.131 21.5706C235.239 21.6813 235.439 21.7367 235.732 21.7367H240.84V23.6584H235.732C234.515 23.6584 233.691 23.4765 233.259 23.1127C232.828 22.7489 232.612 22.0134 232.612 20.9063V14.809H230V12.9822H232.612Z" fill="#A3A3A3"/>
<path d="M241.906 20.8114C241.922 20.4002 242.045 20.0285 242.276 19.6963C242.507 19.3484 242.831 19.0558 243.247 18.8185C243.678 18.5654 244.133 18.344 244.611 18.1542C245.104 17.9486 245.674 17.7825 246.321 17.656C246.984 17.5295 247.585 17.4187 248.124 17.3238C248.679 17.2289 249.295 17.1578 249.973 17.1103C250.666 17.0471 251.221 17.0075 251.637 16.9917C252.053 16.9601 252.523 16.9363 253.047 16.9205C253.571 16.8889 253.879 16.8731 253.972 16.8731C253.956 15.2123 252.415 14.382 249.349 14.382C248.609 14.382 247.954 14.4452 247.384 14.5718C246.83 14.6825 246.414 14.8248 246.136 14.9988C245.859 15.157 245.628 15.3231 245.443 15.497C245.273 15.6552 245.165 15.7975 245.119 15.9241L245.073 16.0902H242.669C242.684 15.9636 242.723 15.8134 242.785 15.6394C242.862 15.4496 243.047 15.1728 243.339 14.809C243.632 14.4294 243.994 14.1052 244.426 13.8363C244.873 13.5516 245.527 13.2985 246.39 13.0771C247.253 12.8557 248.247 12.745 249.372 12.745C251.576 12.745 253.278 13.1087 254.48 13.8363C255.698 14.5639 256.306 15.6078 256.306 16.968L256.329 19.8624V20.93C256.329 21.2463 256.376 21.4599 256.468 21.5706C256.56 21.6813 256.73 21.7367 256.977 21.7367H257.855V23.6584H256.977C255.898 23.6584 255.143 23.5002 254.711 23.1839C254.295 22.8675 254.056 22.2744 253.995 21.4045C252.546 23.0652 250.22 23.8956 247.014 23.8956C245.258 23.8956 243.963 23.6188 243.131 23.0652C242.315 22.4958 241.906 21.7762 241.906 20.9063C241.906 20.8747 241.906 20.843 241.906 20.8114ZM245.258 21.8553C245.782 22.0925 246.46 22.227 247.292 22.2586C247.353 22.2586 247.415 22.2586 247.477 22.2586C248.386 22.2586 249.318 22.14 250.274 21.9027C251.244 21.6655 252.1 21.2938 252.839 20.7877C253.579 20.2657 253.956 19.6726 253.972 19.0083V18.3203C253.155 18.3361 252.315 18.3836 251.452 18.4626C250.589 18.5259 249.58 18.6445 248.424 18.8185C247.284 18.9767 246.344 19.2376 245.605 19.6014C244.88 19.9652 244.51 20.4002 244.495 20.9063C244.495 20.9221 244.495 20.93 244.495 20.93C244.495 21.3254 244.749 21.6338 245.258 21.8553Z" fill="#A3A3A3"/>
<path d="M259.66 28V12.9822H261.994V15.1886C263.227 13.6386 265.007 12.8319 267.334 12.7687C267.472 12.7687 267.603 12.7687 267.727 12.7687C269.976 12.7687 271.802 13.2906 273.205 14.3345C274.622 15.3626 275.331 16.6991 275.331 18.344C275.331 20.0364 274.63 21.3808 273.228 22.3772C271.825 23.3737 269.999 23.8719 267.75 23.8719C267.611 23.8719 267.472 23.8719 267.334 23.8719C265.099 23.8086 263.343 23.0257 262.064 21.5231V28H259.66ZM262.018 18.3203C262.018 19.4907 262.557 20.4081 263.635 21.0724C264.714 21.7367 266.016 22.0688 267.542 22.0688C268.975 22.0688 270.223 21.7367 271.286 21.0724C272.365 20.4081 272.904 19.4986 272.904 18.344C272.904 17.1736 272.373 16.2562 271.309 15.5919C270.246 14.9118 268.99 14.5718 267.542 14.5718C266.001 14.5718 264.691 14.896 263.612 15.5445C262.549 16.1771 262.018 17.1024 262.018 18.3203Z" fill="#A3A3A3"/>
<path d="M276.881 8.40332H279.215V20.9063C279.215 21.2226 279.269 21.444 279.377 21.5706C279.485 21.6813 279.693 21.7367 280.001 21.7367H282.174V23.6584H280.001C278.784 23.6584 277.959 23.4765 277.528 23.1127C277.097 22.7489 276.881 22.0134 276.881 20.9063V8.40332Z" fill="#A3A3A3"/>
<path d="M286.289 12.9822V23.6584H283.931V12.9822H286.289ZM283.585 9.56584C283.585 9.12297 283.731 8.75128 284.024 8.45077C284.317 8.15026 284.671 8 285.087 8C285.519 8 285.881 8.15026 286.173 8.45077C286.466 8.75128 286.613 9.12297 286.613 9.56584C286.613 9.97707 286.459 10.3408 286.15 10.6572C285.858 10.9577 285.503 11.1079 285.087 11.1079C284.686 11.1079 284.332 10.9577 284.024 10.6572C283.731 10.3408 283.585 9.97707 283.585 9.56584Z" fill="#A3A3A3"/>
<path d="M290.973 12.9822V15.497C292.005 13.6781 293.823 12.7608 296.428 12.745C296.458 12.745 296.497 12.745 296.543 12.745C298.762 12.745 300.442 13.2036 301.582 14.121C302.722 15.0384 303.292 16.359 303.292 18.083V23.6584H300.888V18.083C300.888 15.6789 299.324 14.4769 296.196 14.4769C294.578 14.4769 293.323 14.8723 292.429 15.6631C291.535 16.4381 291.088 17.4346 291.088 18.6524V23.6584H288.684V12.9822H290.973Z" fill="#A3A3A3"/>
<path d="M305.276 23.6584V8.40332H307.68V18.6999L315.932 12.9822H319.191L312.719 17.4425L320 23.6584H316.88L311.032 18.605L307.68 20.93V23.6584H305.276Z" fill="#A3A3A3"/>
</svg>
