<svg width="112" height="27" viewBox="0 0 112 27" fill="none" xmlns="http://www.w3.org/2000/svg">
<path d="M5.19722 0.49707V9.72569H26.8399V0.49707H32V23.4971H26.8399V13.5531H5.19722V23.4971H0L0 0.49707H5.19722Z" fill="#0A0A0A"/>
<path d="M42.0895 14.9858V12.4804H43.9571V14.9858H48.7278V16.4472H43.9571L43.9756 21.325C43.9756 21.5781 44.0187 21.7552 44.105 21.8565C44.1913 21.945 44.3516 21.9893 44.5858 21.9893H48.6723V23.5267H44.5858C43.6119 23.5267 42.9524 23.3812 42.6072 23.0902C42.2621 22.7991 42.0895 22.2108 42.0895 21.325V16.4472H40V14.9858H42.0895Z" fill="#A3A3A3"/>
<path d="M49.5251 21.2491C49.5374 20.9201 49.636 20.6228 49.8209 20.3571C50.0058 20.0787 50.2647 19.8446 50.5975 19.6548C50.9427 19.4524 51.3064 19.2752 51.6885 19.1234C52.083 18.9589 52.5391 18.826 53.0569 18.7248C53.5869 18.6236 54.0677 18.535 54.4992 18.4591C54.9429 18.3832 55.436 18.3262 55.9784 18.2883C56.5332 18.2376 56.977 18.206 57.3098 18.1934C57.6426 18.1681 58.0186 18.1491 58.4378 18.1364C58.8569 18.1111 59.1034 18.0985 59.1774 18.0985C59.1651 16.7699 57.9323 16.1056 55.4792 16.1056C54.8875 16.1056 54.3636 16.1562 53.9074 16.2574C53.4637 16.346 53.1308 16.4599 52.9089 16.5991C52.687 16.7256 52.5021 16.8584 52.3542 16.9976C52.2186 17.1242 52.1323 17.238 52.0953 17.3393L52.0583 17.4721H50.1353C50.1476 17.3709 50.1784 17.2507 50.2277 17.1115C50.2894 16.9597 50.4373 16.7382 50.6715 16.4472C50.9057 16.1435 51.1954 15.8841 51.5406 15.669C51.8981 15.4413 52.422 15.2388 53.1123 15.0617C53.8027 14.8845 54.5978 14.796 55.4977 14.796C57.2605 14.796 58.6227 15.087 59.5842 15.669C60.5581 16.2511 61.045 17.0862 61.045 18.1744L61.0635 20.4899V21.344C61.0635 21.5971 61.1005 21.7679 61.1744 21.8565C61.2484 21.945 61.384 21.9893 61.5812 21.9893H62.2839V23.5267H61.5812C60.7183 23.5267 60.1143 23.4002 59.7691 23.1471C59.4363 22.894 59.2452 22.4195 59.1959 21.7236C58.0371 23.0522 56.1757 23.7165 53.6116 23.7165C52.2063 23.7165 51.1708 23.4951 50.5051 23.0522C49.8517 22.5967 49.5251 22.021 49.5251 21.325C49.5251 21.2997 49.5251 21.2744 49.5251 21.2491ZM52.2063 22.0842C52.6254 22.274 53.1678 22.3816 53.8335 22.4069C53.8828 22.4069 53.9321 22.4069 53.9814 22.4069C54.7087 22.4069 55.4545 22.312 56.2188 22.1222C56.9955 21.9324 57.6796 21.635 58.2713 21.2301C58.863 20.8126 59.1651 20.3381 59.1774 19.8066V19.2562C58.524 19.2689 57.8522 19.3068 57.1619 19.3701C56.4715 19.4207 55.6641 19.5156 54.7395 19.6548C53.8273 19.7813 53.0753 19.9901 52.4836 20.2811C51.9042 20.5722 51.6084 20.9201 51.5961 21.325C51.5961 21.3377 51.5961 21.344 51.5961 21.344C51.5961 21.6603 51.7995 21.9071 52.2063 22.0842Z" fill="#A3A3A3"/>
<path d="M63.7279 27V14.9858H65.5955V16.7509C66.5817 15.5109 68.0055 14.8656 69.867 14.8149C69.9779 14.8149 70.0827 14.8149 70.1813 14.8149C71.9811 14.8149 73.4419 15.2325 74.5637 16.0676C75.6978 16.8901 76.2649 17.9593 76.2649 19.2752C76.2649 20.6291 75.704 21.7046 74.5822 22.5018C73.4604 23.2989 71.9996 23.6975 70.1998 23.6975C70.0889 23.6975 69.9779 23.6975 69.867 23.6975C68.0795 23.6469 66.6742 23.0206 65.651 21.8185V27H63.7279ZM65.614 19.2562C65.614 20.1926 66.0455 20.9265 66.9084 21.4579C67.7713 21.9893 68.813 22.255 70.0334 22.255C71.1798 22.255 72.1783 21.9893 73.0289 21.4579C73.8919 20.9265 74.3233 20.1989 74.3233 19.2752C74.3233 18.3389 73.898 17.605 73.0474 17.0735C72.1968 16.5295 71.1922 16.2574 70.0334 16.2574C68.8006 16.2574 67.7528 16.5168 66.8899 17.0356C66.0393 17.5417 65.614 18.2819 65.614 19.2562Z" fill="#A3A3A3"/>
<path d="M77.5046 11.3227H79.3722V21.325C79.3722 21.5781 79.4154 21.7552 79.5017 21.8565C79.588 21.945 79.7544 21.9893 80.0009 21.9893H81.7391V23.5267H80.0009C79.0271 23.5267 78.3676 23.3812 78.0224 23.0902C77.6772 22.7991 77.5046 22.2108 77.5046 21.325V11.3227Z" fill="#A3A3A3"/>
<path d="M85.0312 14.9858V23.5267H83.1451V14.9858H85.0312ZM82.8678 12.2527C82.8678 11.8984 82.9849 11.601 83.2191 11.3606C83.4533 11.1202 83.7368 11 84.0697 11C84.4149 11 84.7045 11.1202 84.9388 11.3606C85.173 11.601 85.2901 11.8984 85.2901 12.2527C85.2901 12.5817 85.1668 12.8727 84.9203 13.1257C84.6861 13.3662 84.4025 13.4864 84.0697 13.4864C83.7492 13.4864 83.4656 13.3662 83.2191 13.1257C82.9849 12.8727 82.8678 12.5817 82.8678 12.2527Z" fill="#A3A3A3"/>
<path d="M88.7781 14.9858V16.9976C89.604 15.5425 91.0587 14.8086 93.142 14.796C93.1667 14.796 93.1975 14.796 93.2345 14.796C95.0096 14.796 96.3533 15.1629 97.2655 15.8968C98.1777 16.6307 98.6339 17.6872 98.6339 19.0664V23.5267H96.7108V19.0664C96.7108 17.1431 95.4596 16.1815 92.9571 16.1815C91.6627 16.1815 90.658 16.4978 89.9431 17.1305C89.2281 17.7505 88.8706 18.5476 88.8706 19.5219V23.5267H86.9475V14.9858H88.7781Z" fill="#A3A3A3"/>
<path d="M100.221 23.5267V11.3227H102.144V19.5599L108.746 14.9858H111.353L106.175 18.554L112 23.5267H109.504L104.825 19.484L102.144 21.344V23.5267H100.221Z" fill="#A3A3A3"/>
</svg>
