<svg width="231" height="24" viewBox="0 0 231 24" fill="none" xmlns="http://www.w3.org/2000/svg">
<path d="M14.1393 0.71558V9.94655H35.541V0.71558H40.6437V23.7214H35.541V13.7749H14.1393V23.7214H9L9 0.71558H14.1393Z" fill="#0A0A0A"/>
<path d="M47.5212 0.715581H74.7597V4.54393H52.6605V10.3043H73.2546V14.1327H52.6605V19.8931H75.1268V23.7214H47.5212V0.715581Z" fill="#0A0A0A"/>
<path d="M81.3357 23.7214V0.71558H98.4424C102.089 0.71558 104.879 1.37153 106.812 2.68342C108.77 3.99532 109.749 5.80812 109.749 8.12182C109.749 9.45757 109.37 10.686 108.611 11.8071C107.852 12.9043 106.763 13.7868 105.344 14.4547C106.543 14.5262 107.399 14.8244 107.913 15.3492C108.427 15.8501 108.684 16.7922 108.684 18.1757V23.7214H103.618L103.582 18.1757C103.582 17.3409 103.41 16.7445 103.068 16.3868C102.725 16.0051 102.101 15.8143 101.196 15.8143H86.475V23.7214H81.3357ZM86.475 12.0217H98.4424C100.425 12.0217 101.954 11.6759 103.031 10.9841C104.108 10.2686 104.646 9.31445 104.646 8.12182C104.646 5.73656 102.578 4.54393 98.4424 4.54393H86.475V12.0217Z" fill="#0A0A0A"/>
<path d="M115.761 23.7214V0.71558H121.635L134.593 20.0362L147.515 0.71558H153.425V23.7214H148.323V6.97689L137.089 23.7214H132.097L120.9 7.01267V23.7214H115.761Z" fill="#0A0A0A"/>
<path d="M160.389 0.71558H187.628V4.54393H165.528V10.3043H186.123V14.1327H165.528V19.8931H187.995V23.7214H160.389V0.71558Z" fill="#0A0A0A"/>
<path d="M197.882 16.3791C197.882 16.4984 197.906 16.6534 197.955 16.8442C198.004 17.0112 198.212 17.3213 198.579 17.7745C198.971 18.2277 199.473 18.6332 200.084 18.9909C200.721 19.3487 201.7 19.6707 203.021 19.957C204.367 20.2432 205.933 20.3863 207.72 20.3863C210.192 20.3863 212.296 20.0643 214.034 19.4203C215.796 18.7763 216.677 17.846 216.677 16.6295C216.677 15.8424 216.249 14.9317 215.392 14.4547C214.536 13.9776 213.422 13.6437 212.052 13.4529C210.706 13.2621 209.201 13.107 207.536 12.9878C205.897 12.8685 204.245 12.7135 202.581 12.5226C200.941 12.308 199.436 12.0217 198.065 11.6639C196.695 11.3061 195.581 10.7337 194.725 9.94655C193.868 9.13556 193.44 8.12182 193.44 6.90534C193.44 4.71089 194.651 3.01736 197.074 1.82473C199.497 0.608242 202.838 0 207.096 0C209.69 0 211.942 0.226601 213.85 0.679802C215.784 1.133 217.203 1.68161 218.109 2.32563C219.014 2.9458 219.724 3.57789 220.238 4.22192C220.776 4.86594 221.094 5.41455 221.192 5.86775L221.303 6.54755H215.943C215.918 6.47599 215.869 6.36865 215.796 6.22554C215.723 6.08242 215.49 5.84389 215.099 5.50996C214.732 5.17602 214.254 4.87786 213.667 4.61548C213.104 4.3531 212.247 4.11458 211.097 3.8999C209.947 3.68523 208.638 3.57789 207.169 3.57789C204.575 3.57789 202.519 3.91183 201.002 4.5797C199.509 5.22373 198.763 5.92738 198.763 6.69066C198.763 6.69066 198.763 6.70259 198.763 6.72644C198.763 7.34661 199.191 7.83559 200.048 8.19338C200.904 8.55117 202.006 8.80162 203.352 8.94474C204.722 9.064 206.239 9.18326 207.904 9.30253C209.568 9.39793 211.22 9.57683 212.859 9.83921C214.523 10.0777 216.029 10.4236 217.375 10.8768C218.745 11.3061 219.859 11.9859 220.715 12.9162C221.572 13.8226 222 15.2342 222 16.5938C222 18.0011 221.559 19.2176 220.678 20.2432C219.822 21.245 218.659 22.0083 217.191 22.5331C215.747 23.0578 214.242 23.4275 212.676 23.6422C211.134 23.8807 209.482 24 207.72 24C205.787 24 204.012 23.8569 202.397 23.5707C200.806 23.2844 199.497 22.9266 198.469 22.4973C197.441 22.0679 196.536 21.579 195.753 21.0303C194.994 20.4579 194.407 19.9212 193.991 19.4203C193.599 18.8955 193.281 18.3946 193.036 17.9176C192.816 17.4167 192.669 17.0589 192.596 16.8442C192.547 16.6057 192.522 16.4506 192.522 16.3791H197.882Z" fill="#0A0A0A"/>
</svg>
