<svg width="24" height="24" viewBox="0 0 24 24" fill="none" xmlns="http://www.w3.org/2000/svg">
<path fill-rule="evenodd" clip-rule="evenodd" d="M11.298 13.5278L14.489 15.4378C14.65 15.5338 14.827 15.5798 15.002 15.5798C15.341 15.5798 15.673 15.4068 15.86 15.0938C16.144 14.6198 15.99 14.0058 15.516 13.7218L12.812 12.1028V8.5498C12.812 7.9978 12.364 7.5498 11.812 7.5498C11.259 7.5498 10.812 7.9978 10.812 8.5498V12.6698C10.812 13.0218 10.996 13.3468 11.298 13.5278Z" fill="white"/>
<path fill-rule="evenodd" clip-rule="evenodd" d="M8.56612 4.34029C8.73012 4.44229 8.91212 4.49029 9.09112 4.49029C9.42612 4.49029 9.75312 4.32229 9.94212 4.01629L9.94912 4.00629C10.2401 3.53629 10.0911 2.92529 9.62212 2.63429C9.15112 2.34429 8.53312 2.49429 8.24212 2.96429C7.95112 3.43329 8.09612 4.04929 8.56612 4.34029Z" fill="white"/>
<path fill-rule="evenodd" clip-rule="evenodd" d="M6.18033 6.5195L6.18533 6.5095C6.42233 6.0105 6.20833 5.4195 5.70933 5.1815C5.21233 4.9435 4.61233 5.1615 4.37433 5.6605C4.13733 6.1585 4.34833 6.7555 4.84733 6.9925C4.98633 7.0585 5.13233 7.0895 5.27733 7.0895C5.65033 7.0895 6.00933 6.8795 6.18033 6.5195Z" fill="white"/>
<path fill-rule="evenodd" clip-rule="evenodd" d="M3.22952 11.2404C3.57652 11.2404 3.91452 11.0594 4.09852 10.7364L4.10452 10.7264C4.37852 10.2464 4.20852 9.64145 3.72952 9.36645C3.24952 9.09345 2.63552 9.26445 2.36252 9.74445C2.08852 10.2234 2.25452 10.8344 2.73452 11.1084C2.89052 11.1984 3.06152 11.2404 3.22952 11.2404Z" fill="white"/>
<path fill-rule="evenodd" clip-rule="evenodd" d="M3.99132 13.9478C3.51732 13.6638 2.90032 13.8228 2.61632 14.2958C2.33232 14.7688 2.48532 15.3838 2.95932 15.6678C3.12032 15.7638 3.29732 15.8098 3.47232 15.8098C3.81232 15.8098 4.14332 15.6368 4.33132 15.3248L4.33732 15.3148C4.62132 14.8418 4.46532 14.2318 3.99132 13.9478Z" fill="white"/>
<path fill-rule="evenodd" clip-rule="evenodd" d="M6.41322 17.7005C5.92022 17.4535 5.31622 17.6585 5.06922 18.1525C4.82222 18.6465 5.02222 19.2475 5.51622 19.4945C5.66022 19.5665 5.81222 19.5995 5.96222 19.5995C6.33022 19.5995 6.68322 19.3975 6.85822 19.0475L6.86322 19.0375C7.11022 18.5435 6.90722 17.9475 6.41322 17.7005Z" fill="white"/>
<path fill-rule="evenodd" clip-rule="evenodd" d="M12.1006 2H12.0986C11.5476 2 11.0996 2.446 11.0986 2.998C11.0976 3.55 11.5446 3.999 12.0966 4C16.5076 4.009 20.0916 7.602 20.0856 12.009C20.0826 14.146 19.2476 16.155 17.7346 17.665C16.2256 19.171 14.2226 20 12.0906 20H12.0736C11.0806 20 10.1196 19.821 9.21661 19.468C8.70061 19.268 8.12161 19.522 7.92061 20.036C7.72061 20.551 7.97461 21.13 8.48861 21.332C9.63161 21.777 10.8026 21.98 12.0926 22C14.7556 22 17.2606 20.963 19.1476 19.081C21.0386 17.193 22.0816 14.683 22.0856 12.012C22.0936 6.502 17.6136 2.011 12.1006 2Z" fill="white"/>
</svg>
