<svg width="24" height="24" viewBox="0 0 24 24" fill="none" xmlns="http://www.w3.org/2000/svg">
<path d="M16.3535 2.00043C19.7305 2.00043 21.9995 4.36243 21.9995 7.88843V16.1024C21.9995 16.2534 21.9725 16.3884 21.9645 16.5344C21.9595 16.6194 21.9605 16.7044 21.9535 16.7894C21.9495 16.8274 21.9385 16.8624 21.9345 16.9004C21.9015 17.2144 21.8505 17.5144 21.7795 17.8054C21.7615 17.8834 21.7405 17.9584 21.7195 18.0344C21.6395 18.3164 21.5455 18.5854 21.4325 18.8424C21.3995 18.9144 21.3635 18.9834 21.3295 19.0544C21.2075 19.2994 21.0755 19.5344 20.9225 19.7524L20.7745 19.9444C20.6155 20.1504 20.4495 20.3474 20.2615 20.5264C20.2005 20.5844 20.1315 20.6344 20.0675 20.6894C19.8745 20.8554 19.6775 21.0144 19.4605 21.1504C19.3825 21.1994 19.2965 21.2354 19.2165 21.2794C18.9955 21.4014 18.7725 21.5204 18.5295 21.6124C18.4295 21.6504 18.3185 21.6704 18.2145 21.7034C17.9755 21.7774 17.7395 21.8544 17.4825 21.8984C17.4178 21.9098 17.3513 21.9178 17.2837 21.924L16.8735 21.9534C16.6995 21.9664 16.5345 22.0004 16.3535 22.0004H7.63751C7.26151 22.0004 6.90251 21.9624 6.55551 21.9054C6.54251 21.9034 6.53051 21.9014 6.51851 21.8994C5.16551 21.6664 4.04251 21.0134 3.25551 20.0284C3.24651 20.0284 3.24651 20.0184 3.23751 20.0094C2.44651 19.0134 1.99951 17.6744 1.99951 16.1024V7.88843C1.99951 4.36243 4.27051 2.00043 7.63751 2.00043H16.3535ZM16.3535 3.39543H7.63751C5.06051 3.39543 3.39551 5.16243 3.39551 7.88843V16.1024C3.39551 16.8674 3.53751 17.5504 3.78051 18.1414C3.81151 18.1044 5.74851 15.7424 5.75751 15.7344C6.44951 14.9444 7.74851 13.7664 9.45351 14.4794C9.86351 14.6494 10.2235 14.8884 10.5535 15.0984C11.1265 15.4814 11.4635 15.6614 11.8135 15.6314C11.9585 15.6114 12.0945 15.5684 12.2235 15.4884C12.7815 15.1444 14.3585 12.8444 14.4535 12.7194C15.5435 11.2994 17.2235 10.9194 18.6235 11.7594C18.7175 11.8154 19.1013 12.0787 19.5173 12.3752L19.8313 12.6011C20.1433 12.8278 20.4373 13.0487 20.6045 13.1904V7.88843C20.6045 5.16243 18.9395 3.39543 16.3535 3.39543ZM8.47879 6.00003C9.17647 6.00003 9.80825 6.29341 10.2608 6.76146C10.7152 7.21311 11.0001 7.83558 11.0001 8.51498C11.0001 9.86994 9.86639 11 8.50496 11C7.30825 11 6.2879 10.1257 6.05922 8.99366C6.02143 8.82381 6.00011 8.64913 6.00011 8.46866C6.00011 7.10406 7.10864 6.00003 8.47879 6.00003Z" fill="#A3A3A3"/>
</svg>
